<?xml version="1.0" standalone="no"?>
<!DOCTYPE svg PUBLIC "-//W3C//DTD SVG 20010904//EN"
 "http://www.w3.org/TR/2001/REC-SVG-20010904/DTD/svg10.dtd">
<svg version="1.0" xmlns="http://www.w3.org/2000/svg"
 width="348.000000pt" height="332.000000pt" viewBox="0 0 348.000000 332.000000"
 preserveAspectRatio="xMidYMid meet">

<g transform="translate(0.000000,332.000000) scale(0.100000,-0.100000)"
fill="#000000" stroke="none">
<path d="M1358 2847 c-258 -254 -468 -467 -468 -472 0 -16 623 -635 639 -635
15 0 261 240 261 255 0 6 -81 91 -180 190 -99 99 -180 184 -180 190 0 13 392
405 405 405 6 0 253 -243 550 -540 l540 -540 -150 -150 -150 -150 130 -130
c71 -71 134 -130 140 -130 17 0 555 544 555 561 0 18 -1590 1602 -1612 1607
-7 1 -223 -206 -480 -461z"/>
<path d="M487 1982 c-147 -147 -267 -274 -267 -283 0 -21 1599 -1611 1616
-1607 18 4 934 910 934 923 0 13 -622 635 -635 635 -6 0 -69 -58 -140 -130
l-129 -130 182 -183 c100 -100 182 -187 182 -192 0 -13 -382 -395 -395 -395
-16 0 -1075 1064 -1075 1080 0 8 62 77 137 152 l138 138 -130 130 c-71 71
-134 130 -140 130 -6 0 -130 -120 -278 -268z"/>
</g>
</svg>
